<?xml version="1.0" encoding="UTF-8" standalone="no"?>
<!-- Created with Inkscape (http://www.inkscape.org/) -->

<svg
   xmlns:dc="http://purl.org/dc/elements/1.1/"
   xmlns:cc="http://creativecommons.org/ns#"
   xmlns:rdf="http://www.w3.org/1999/02/22-rdf-syntax-ns#"
   xmlns:svg="http://www.w3.org/2000/svg"
   xmlns="http://www.w3.org/2000/svg"
   xmlns:sodipodi="http://sodipodi.sourceforge.net/DTD/sodipodi-0.dtd"
   xmlns:inkscape="http://www.inkscape.org/namespaces/inkscape"
   width="744.09448819"
   height="1052.3622047"
   id="svg2"
   version="1.1"
   inkscape:version="0.48.4 r9939"
   sodipodi:docname="New document 1">
  <defs
     id="defs4" />
  <sodipodi:namedview
     id="base"
     pagecolor="#ffffff"
     bordercolor="#666666"
     borderopacity="1.0"
     inkscape:pageopacity="0.0"
     inkscape:pageshadow="2"
     inkscape:zoom="1.4"
     inkscape:cx="351.95757"
     inkscape:cy="573.33273"
     inkscape:document-units="px"
     inkscape:current-layer="layer1"
     showgrid="false"
     inkscape:window-width="1535"
     inkscape:window-height="876"
     inkscape:window-x="65"
     inkscape:window-y="24"
     inkscape:window-maximized="1" />
  <metadata
     id="metadata7">
    <rdf:RDF>
      <cc:Work
         rdf:about="">
        <dc:format>image/svg+xml</dc:format>
        <dc:type
           rdf:resource="http://purl.org/dc/dcmitype/StillImage" />
        <dc:title></dc:title>
      </cc:Work>
    </rdf:RDF>
  </metadata>
  <g
     inkscape:label="Layer 1"
     inkscape:groupmode="layer"
     id="layer1">
    <path
       id="path3002"
       style="fill:#ff34bb;fill-opacity:1"
       d="m 295.30099,446.75503 c -1.24387,-1.58606 -1.2085,-1.62143 0.37756,-0.37756 1.66575,1.30637 2.19548,2.12756 1.37244,2.12756 -0.20765,0 -0.99515,-0.7875 -1.75,-1.75 z m 25.57756,21.91004 c -1.70344,-1.50614 -8.45,-5.33713 -8.45,-4.79828 0,0.28868 1.9125,1.67113 4.25,3.0721 4.31775,2.58782 5.9187,3.24581 4.2,1.72618 z m 67.05,-58.02738 c -2.2,-1.00288 -5.41496,-3.018 -7.14436,-4.47804 -2.33642,-1.97253 -4.26352,-2.66026 -7.5,-2.67658 -3.55438,-0.0179 -12.85717,-3.04223 -12.85509,-4.17915 3e-4,-0.16439 6.9753,-0.32841 15.5,-0.36448 10.33537,-0.0437 15.504,0.28944 15.5131,1 0.008,0.58607 0.27632,2.19059 0.59734,3.56559 0.55356,2.37094 0.47575,2.34513 -1.50706,-0.5 -1.23149,-1.76706 -2.09346,-2.37442 -2.09734,-1.47784 -0.004,0.83718 1.45591,3.31218 3.24341,5.5 l 3.25,3.97784 -2.90535,-1.87484 c -1.59794,-1.03117 -3.9876,-3.05617 -5.31035,-4.5 -1.93961,-2.11717 -2.2072,-2.21631 -1.38286,-0.5123 0.56217,1.16207 2.62999,3.52457 4.59514,5.25 4.08239,3.58438 3.66425,3.85031 -1.99658,1.2698 z m -47.18529,39.40368 c -1.7519,-0.76195 -3.90514,-2.77742 -4.78497,-4.47882 -1.71903,-3.32425 -1.92882,-3.00161 2.93403,-4.51223 0.80507,-0.25009 3.92965,0.18757 6.94351,0.97257 4.78267,1.24573 5.92807,1.23997 9.00411,-0.0453 4.53749,-1.89589 10.47861,-1.9228 11.197,-0.0507 0.81324,2.11927 -1.32676,5.43561 -4.92221,7.62791 -3.86134,2.35443 -15.44093,2.63101 -20.37147,0.48657 z M 274.875,388.3125 c -1.90287,8.97838 -1.84542,27.42266 0.125,37 16.99443,54.5233 53.99722,81.69828 89.96875,124.6875 12.439,14.99017 24.29375,34.50471 27.53125,45.3125 0.9581,3.19846 1.50058,3.92829 2.125,2.8125 0.73227,-1.30849 7.48659,-31.84807 9.875,-44.625 0.46266,-2.475 1.07489,-5.625 1.34375,-7 6.76477,-45.06451 17.29586,-96.57406 11.65625,-142.5 -3.31394,-22.8052 -12.97351,-38.35402 -34.0625,-54.8125 -2.62089,-2.04542 -17.29006,-8.46654 -23.09375,-10.09375 -39.99933,-9.05676 -76.51898,9.6312 -85.46875,49.21875 z M 381.71875,365.5 c 3.8923,0 12.88065,8.64871 18.1875,17.5 13.608,22.69679 9.96893,51.41402 -8.875,70 -24.50418,22.29279 -57.27815,22.78692 -80.5625,0.53125 -8.74942,-8.55819 -13.9683,-17.9276 -16.46875,-29.625 l -0.65625,-3.09375 7.9375,-0.6875 c 41.63825,-5.99096 57.17909,-32.33424 80.4375,-54.625 z M 372.625,367 c -15.42737,26.54075 -57.00479,44.91836 -81.6875,50.21875 l -0.34375,4.375 c -0.89178,10.89763 5.23835,18.38167 7.21875,26.90625 -0.34714,0 2.58373,3.21663 6.5,7.15625 7.76447,7.81077 9.15821,10.72201 1.71875,3.59375 -2.52787,-2.42212 -4.75767,-4.27358 -4.9375,-4.09375 -14.3318,-12.88262 -16.64822,-26.36035 -17.90625,-43.34375 l 8.09375,-0.6875 C 327.47965,403.06412 354.3847,390.21492 372.625,367 z"
       inkscape:export-filename="/home/aristath/logo.png"
       inkscape:export-xdpi="44.695873"
       inkscape:export-ydpi="44.695873" />
  </g>
</svg>
